#!OML:ASF F:\VICON\USERDATA\INSTALL\rory3\rory3.ASF
:FULLY-SPECIFIED
:DEGREES
93
root -0.0563096768887279 18.36898347441237 42.52052847106196 3.3025522554888505 -1.24497270839332 0.1972947575016093
lfemur 11.717072663702421 -6.640533494750934 -29.326585154689
ltibia 20.105849950693774
lfoot 40.784691560283726 -23.143388001667052
ltoes -21.669472060123105
rfemur -37.74141366938582 -0.24428162102929019 23.63900434991372
rtibia -22.431786241415843
rfoot 6.668395331297656 -4.083388867100824
rtoes -34.489483271874015
lowerback 1.0 -1.3860187940262074 -1.2291583297394524
upperback -1.1039119551507106 -1.6004014905244563 1.8916871352579951
thorax -6.83572074785855 -0.5037538793751122 3.2602015327489946
lowerneck -22.437260244433176 -1.944515875229575 -2.4219134336420876
upperneck 8.85733332741519 -2.546381707619847 2.0634232322653836
head 6.503474213955884 -1.2016885410304703 0.6640619592610385
lclavicle -5.9818620951205704e-15 -6.067555781550192e-15
lhumerus -43.725361595344204 -14.389894544011712 95.97256009709615
lradius 123.12850558014867
lwrist 44.283259853869666
lhand -34.164629201384955 2.4897427156582106
lfingers nan
lthumb -7.585777345009033 32.28836073219989
rclavicle -8.213089173411342e-15 -6.614001623003415e-15
rhumerus -61.394106961264505 2.440013592196623 -89.55015069087264
rradius 126.21042513695724
rwrist -5.11051443629508
rhand -20.2385505009977 1.0
rfingers nan
rthumb 5.926139451725655 11.337243575495297
94
root -0.05566894063462202 18.31180335011093 42.9231375774075 2.960770014860022 -1.8504926201553757 -0.14591151821582082
lfemur 10.475764690387987 -5.861753798533311 -28.631295713235666
ltibia 23.566984128783638
lfoot 40.591641040659745 -23.709027682091172
ltoes -21.526538698022502
rfemur -37.51664452659057 -0.609167220615324 25.189579494740684
rtibia -20.59236449701782
rfoot 6.763877137291498 -2.7128782244681418
rtoes -35.17143470537139
lowerback 1.0 -1.2230444418708475 -1.0212806693597318
upperback -0.9075614194106255 -1.3815776702627014 2.0428902134418228
thorax -6.989920930879514 -0.37473179016597485 3.19064675659395
lowerneck -22.098934075270602 -1.9297780799964444 -2.459262449153944
upperneck 8.852766343635231 -2.6162495348805783 2.0915766028540625
head 6.4291836929043935 -1.2178718293045103 0.6723487392674615
lclavicle 2.0519101025947076e-14 -1.0750434756877995e-14
lhumerus -44.49190047410029 -14.174215870177227 96.20680470680854
lradius 121.76608876592523
lwrist 45.54712541327247
lhand -34.703622369494795 2.163662702464581
lfingers nan
lthumb -8.14752328411042 31.913683239509496
rclavicle 1.820305112721134e-14 -1.111088197702961e-14
rhumerus -60.71056638168812 2.2991108889811667 -89.54730482317446
rradius 125.75416806168225
rwrist -5.844996201537986
rhand -19.42420920090349 1.0
rfingers nan
rthumb 6.706710930994664 10.746158525115746
95
root -0.04433348234958656 18.257454657658815 43.56407636773053 2.6835621532409264 -2.2911101090259027 -0.316166754551378
lfemur 9.197012285011347 -5.100797299146032 -27.973053450683434
ltibia 27.160394073464833
lfoot 42.88950676952195 -21.869438456301545
ltoes -15.302741266543425
rfemur -37.24263291074065 -0.9546328961545307 26.463863813099774
rtibia -18.344427535453967
rfoot 7.333103981286513 -0.9630922710290948
rtoes -33.6480393793357
lowerback 1.0 -1.0683674335942077 -0.6681375406774726
upperback -0.7748826391383685 -1.1484618996756377 2.061288190266809
thorax -7.269701856150574 -0.24827451232526226 2.9784687660887514
lowerneck -21.287575023151323 -2.020487231503313 -2.485503462179173
upperneck 8.677371042346827 -2.8192683364434825 2.1384803002505186
head 6.241810191088311 -1.297209092179387 0.6709421274813054
lclavicle 4.883573967498141e-14 -3.150306441474295e-14
lhumerus -45.09631137602593 -14.066944783746957 96.41077583482729
lradius 120.33384663374183
lwrist 46.01013848675033
lhand -35.15669956454825 2.6862364365810674
lfingers nan
lthumb -8.585941853322428 32.40476779282804
rclavicle 4.6652734978890835e-14 -3.1673921770176186e-14
rhumerus -60.0980355404308 2.1366631949182295 -89.71019140702197
rradius 125.33015594167631
rwrist -5.133450260331347
rhand -19.60766799868251 1.0
rfingers nan
rthumb 6.524323686042225 10.305602224850718
96
root -0.04713354554256788 18.19645245673424 43.87676871644382 2.5388515621447594 -2.405246392258465 -0.5291948096280465
lfemur 7.796909084458985 -4.327829544064461 -26.977886250983925
ltibia 30.790238239885024
lfoot 44.318694060338 -21.132909945221503
ltoes -12.888198845579652
rfemur -37.150972242902185 -1.0156801008806866 27.615187778336182
rtibia -15.441256620575622
rfoot 7.921196018102176 1.1037805655591013
rtoes -32.205926565426246
lowerback 1.0 -0.9849655045465373 -0.2413733455161784
upperback -0.562773375155599 -0.9875967109820252 2.1676102947536533
thorax -7.2516838542266555 -0.15728030486112082 2.8212424150329145
lowerneck -21.13982252460483 -2.061182140209656 -2.4479595351682812
upperneck 8.615157032400615 -2.9447961638682187 2.0561015932535858
head 6.17675458110765 -1.345964787092311 0.6262924476697778
lclavicle 2.742407504233988e-14 -1.8548204099309342e-14
lhumerus -45.57766881511138 -13.985056100929508 96.53443795522111
lradius 118.81611495004266
lwrist 46.0958316872629
lhand -35.85676104290424 2.258429499716957
lfingers nan
lthumb -9.222827314857842 31.98729089253306
rclavicle 2.5548651837113535e-14 -1.8546578329919567e-14
rhumerus -59.42991854222512 2.045857851010295 -89.83673138254993
rradius 125.09948631445351
rwrist -3.933414915385267
rhand -19.782903252400985 1.0
rfingers nan
rthumb 6.346048247070719 10.261423970364907
